<svg width="268" height="23" viewBox="0 0 268 23" fill="none" xmlns="http://www.w3.org/2000/svg">
<path d="M17.044 14.776C17.5667 14.776 17.9587 14.888 18.22 15.112C18.5 15.3173 18.64 15.616 18.64 16.008C18.64 16.176 18.612 16.3627 18.556 16.568L17.632 19.844C17.3893 20.6467 17.044 21.2067 16.596 21.524C16.1667 21.8413 15.5227 22 14.664 22H1.504C1.112 22 0.813333 21.9347 0.608 21.804C0.384 21.6733 0.272 21.496 0.272 21.272C0.272 21.16 0.3 21.0387 0.356 20.908C0.412 20.7587 0.505333 20.6373 0.636 20.544C0.766667 20.432 0.906667 20.3293 1.056 20.236C1.35467 20.0493 1.59733 19.8627 1.784 19.676C1.97067 19.4707 2.12933 19.144 2.26 18.696L5.676 6.628C5.75067 6.38533 5.788 6.152 5.788 5.928C5.788 5.72267 5.75067 5.55467 5.676 5.424C5.62 5.27467 5.536 5.10667 5.424 4.92C5.256 4.67733 5.172 4.48133 5.172 4.332C5.172 4.276 5.19067 4.17333 5.228 4.024C5.30267 3.78133 5.46133 3.61333 5.704 3.52C5.96533 3.408 6.35733 3.352 6.88 3.352H13.46C13.852 3.352 14.1507 3.41733 14.356 3.548C14.58 3.66 14.692 3.828 14.692 4.052C14.692 4.14533 14.664 4.26667 14.608 4.416C14.552 4.54667 14.468 4.668 14.356 4.78C14.2627 4.87333 14.1693 4.948 14.076 5.004C14.0013 5.04133 13.9453 5.07867 13.908 5.116C13.6093 5.284 13.3667 5.47067 13.18 5.676C12.9933 5.88133 12.8347 6.19867 12.704 6.628L9.092 19.312H10.828C11.2573 19.312 11.6213 19.2373 11.92 19.088C12.2373 18.9387 12.564 18.6587 12.9 18.248L14.832 15.952C15.1867 15.5413 15.5227 15.2427 15.84 15.056C16.176 14.8693 16.5773 14.776 17.044 14.776ZM29.2343 7.188C31.3809 7.188 33.0983 7.58933 34.3863 8.392C35.6743 9.176 36.3183 10.38 36.3183 12.004C36.3183 12.62 36.2063 13.32 35.9823 14.104L34.8343 17.968C34.8156 18.0427 34.8063 18.136 34.8063 18.248C34.8063 18.5467 34.9276 18.696 35.1703 18.696C35.3943 18.696 35.5809 18.6027 35.7303 18.416C35.8983 18.2107 36.0103 18.108 36.0663 18.108C36.1596 18.108 36.2343 18.1733 36.2903 18.304C36.3649 18.4347 36.4023 18.584 36.4023 18.752C36.4209 19.256 36.2249 19.7693 35.8143 20.292C35.4223 20.8147 34.8903 21.244 34.2183 21.58C33.5463 21.916 32.8089 22.084 32.0063 22.084C31.0356 22.084 30.2049 21.9067 29.5143 21.552C28.8236 21.1973 28.3476 20.6747 28.0863 19.984C27.5263 20.656 26.8636 21.1787 26.0983 21.552C25.3329 21.9067 24.5116 22.084 23.6343 22.084C22.6449 22.084 21.8143 21.8973 21.1423 21.524C20.4703 21.132 19.9663 20.6373 19.6303 20.04C19.3129 19.424 19.1543 18.78 19.1543 18.108C19.1543 17.8093 19.1823 17.52 19.2383 17.24C19.5369 15.952 20.1809 14.9813 21.1703 14.328C22.1783 13.6747 23.3729 13.348 24.7543 13.348C26.3036 13.348 27.8249 13.5907 29.3183 14.076L30.0183 12.228C30.2609 11.444 30.3823 10.8373 30.3823 10.408C30.3636 9.96 30.2143 9.624 29.9343 9.4C29.6543 9.176 29.2249 9.064 28.6463 9.064C28.7583 9.36267 28.8143 9.67067 28.8143 9.988C28.8143 10.6787 28.5529 11.276 28.0303 11.78C27.5076 12.284 26.7609 12.536 25.7903 12.536C24.8756 12.536 24.1569 12.34 23.6343 11.948C23.1303 11.5373 22.8783 11.0333 22.8783 10.436C22.8783 9.50267 23.4009 8.728 24.4463 8.112C25.4916 7.496 27.0876 7.188 29.2343 7.188ZM27.6663 15.672C27.1436 15.672 26.7143 15.8773 26.3783 16.288C26.0609 16.68 25.9023 17.1093 25.9023 17.576C25.9023 17.8747 25.9676 18.1173 26.0983 18.304C26.2476 18.4907 26.4529 18.584 26.7143 18.584C26.9569 18.584 27.2183 18.4907 27.4983 18.304C27.7969 18.0987 28.0116 17.8 28.1423 17.408L28.7303 15.756C28.4129 15.7 28.0583 15.672 27.6663 15.672ZM60.4961 18.136C60.4587 18.2107 60.4401 18.3227 60.4401 18.472C60.4401 18.6027 60.4681 18.7053 60.5241 18.78C60.5987 18.8547 60.6921 18.892 60.8041 18.892C61.0281 18.892 61.2147 18.7987 61.3641 18.612C61.5321 18.4067 61.6441 18.304 61.7001 18.304C61.7934 18.304 61.8681 18.3693 61.9241 18.5C61.9801 18.612 62.0081 18.752 62.0081 18.92C62.0267 19.4613 61.8494 19.9933 61.4761 20.516C61.1027 21.02 60.5521 21.44 59.8241 21.776C59.1147 22.0933 58.2561 22.252 57.2481 22.252C56.0161 22.252 55.0361 21.972 54.3081 21.412C53.5801 20.8333 53.2067 20.068 53.1881 19.116C53.1881 18.4253 53.3561 17.6507 53.6921 16.792L55.2321 12.76C55.3254 12.5173 55.3721 12.3213 55.3721 12.172C55.3721 11.9293 55.2881 11.7427 55.1201 11.612C54.9707 11.4627 54.7841 11.388 54.5601 11.388C54.1494 11.388 53.7574 11.584 53.3841 11.976C53.0107 12.3493 52.7401 12.816 52.5721 13.376L50.8361 19.088C50.7614 19.2933 50.7241 19.4893 50.7241 19.676C50.7241 19.9 50.7707 20.0867 50.8641 20.236C50.9574 20.3667 51.0881 20.5067 51.2561 20.656C51.3867 20.768 51.4801 20.8707 51.5361 20.964C51.5921 21.0573 51.6014 21.1693 51.5641 21.3C51.4894 21.5427 51.3121 21.72 51.0321 21.832C50.7521 21.944 50.3134 22 49.7161 22H43.3321C42.8467 22 42.5014 21.9253 42.2961 21.776C42.0721 21.608 41.9881 21.3933 42.0441 21.132C42.1187 20.908 42.3147 20.712 42.6321 20.544C42.9121 20.3947 43.1454 20.2173 43.3321 20.012C43.5187 19.8067 43.6774 19.48 43.8081 19.032L46.3001 10.94C46.3374 10.8467 46.3561 10.716 46.3561 10.548C46.3561 10.3427 46.3094 10.184 46.2161 10.072C46.1414 9.96 46.0107 9.82 45.8241 9.652C45.6374 9.50267 45.5067 9.372 45.4321 9.26C45.3574 9.148 45.3481 8.99867 45.4041 8.812C45.5161 8.38267 46.1041 8.00933 47.1681 7.692C48.2321 7.356 49.3427 7.188 50.5001 7.188C51.4334 7.188 52.1707 7.44933 52.7121 7.972C53.2534 8.476 53.4961 9.18533 53.4401 10.1C54.2054 8.99867 55.0174 8.24267 55.8761 7.832C56.7347 7.40267 57.6681 7.188 58.6761 7.188C59.8147 7.188 60.7294 7.53333 61.4201 8.224C62.1294 8.91467 62.4841 9.81067 62.4841 10.912C62.4841 11.4907 62.3907 12.06 62.2041 12.62L60.4961 18.136ZM74.043 7.188C76.5817 7.188 78.4484 7.70133 79.643 8.728C80.8564 9.75467 81.463 11.0987 81.463 12.76C81.463 13.32 81.3884 13.9453 81.239 14.636C80.8844 16.1667 80.2217 17.5107 79.251 18.668C78.2804 19.8067 77.0857 20.6933 75.667 21.328C74.267 21.944 72.7457 22.252 71.103 22.252C68.5084 22.252 66.5857 21.7387 65.335 20.712C64.103 19.6667 63.487 18.2853 63.487 16.568C63.487 15.9893 63.5617 15.3453 63.711 14.636C64.0657 13.18 64.7377 11.892 65.727 10.772C66.735 9.63333 67.9577 8.756 69.395 8.14C70.851 7.50533 72.4004 7.188 74.043 7.188ZM73.959 9.68C73.567 9.68 73.147 10.0347 72.699 10.744C72.2697 11.4347 71.7564 12.7507 71.159 14.692C70.5617 16.6333 70.263 17.996 70.263 18.78C70.263 19.1907 70.3284 19.4707 70.459 19.62C70.5897 19.7507 70.767 19.816 70.991 19.816C71.383 19.8533 71.7844 19.5173 72.195 18.808C72.6244 18.0987 73.1564 16.7173 73.791 14.664C74.3697 12.8533 74.659 11.5373 74.659 10.716C74.659 10.324 74.5937 10.0533 74.463 9.904C74.351 9.75467 74.183 9.68 73.959 9.68ZM94.098 7.552C94.4527 7.552 94.7234 7.62667 94.91 7.776C95.1154 7.92533 95.218 8.13067 95.218 8.392C95.218 8.46667 95.1994 8.59733 95.162 8.784C94.9194 9.60533 94.3594 10.016 93.482 10.016H91.858L89.758 16.932C89.6647 17.212 89.618 17.5013 89.618 17.8C89.618 18.136 89.7114 18.3693 89.898 18.5C90.0847 18.6307 90.346 18.696 90.682 18.696C90.9807 18.696 91.354 18.6587 91.802 18.584C92.026 18.528 92.222 18.5 92.39 18.5C92.5207 18.5 92.614 18.5467 92.67 18.64C92.7447 18.7147 92.782 18.8173 92.782 18.948C92.8007 19.3213 92.5207 19.7787 91.942 20.32C91.382 20.8427 90.6167 21.3 89.646 21.692C88.6754 22.0653 87.602 22.252 86.426 22.252C85.1567 22.252 84.1394 21.9627 83.374 21.384C82.6087 20.8053 82.226 20.012 82.226 19.004C82.226 18.5373 82.3007 18.0893 82.45 17.66L84.242 12.116C84.3354 11.7987 84.382 11.5467 84.382 11.36C84.382 10.9867 84.2887 10.6693 84.102 10.408C83.934 10.1467 83.6914 9.876 83.374 9.596C83.094 9.33467 82.898 9.12 82.786 8.952C82.674 8.76533 82.646 8.55067 82.702 8.308C82.7767 8.06533 82.9354 7.87867 83.178 7.748C83.4207 7.61733 83.8034 7.552 84.326 7.552H85.894L87.658 5.788C88.274 5.172 88.834 4.74267 89.338 4.5C89.8607 4.25733 90.5327 4.136 91.354 4.136C92.53 4.136 93.118 4.584 93.118 5.48C93.118 5.76 93.0807 6.02133 93.006 6.264L92.614 7.552H94.098ZM103.105 7.048C105.476 7.048 107.193 7.43067 108.257 8.196C109.321 8.94267 109.853 9.904 109.853 11.08C109.853 11.4347 109.816 11.7613 109.741 12.06C109.461 13.292 108.677 14.1787 107.389 14.72C106.12 15.2427 104.617 15.504 102.881 15.504C102.004 15.504 101.183 15.448 100.417 15.336C100.399 16.3067 100.66 16.988 101.201 17.38C101.743 17.772 102.499 17.968 103.469 17.968C103.917 17.968 104.347 17.9213 104.757 17.828C105.168 17.716 105.691 17.5573 106.325 17.352C106.848 17.1653 107.203 17.072 107.389 17.072C107.595 17.072 107.697 17.1933 107.697 17.436C107.716 18.0893 107.473 18.78 106.969 19.508C106.465 20.2173 105.719 20.824 104.729 21.328C103.74 21.832 102.545 22.084 101.145 22.084C99.0733 22.084 97.3746 21.5613 96.0493 20.516C94.7239 19.4707 94.0613 17.9493 94.0613 15.952C94.0613 15.392 94.1359 14.7387 94.2853 13.992C94.7519 11.696 95.7693 9.96933 97.3373 8.812C98.9239 7.636 100.847 7.048 103.105 7.048ZM100.613 13.656C100.688 13.6747 100.791 13.684 100.921 13.684C101.705 13.684 102.303 13.32 102.713 12.592C103.124 11.864 103.32 11.052 103.301 10.156C103.283 9.63333 103.133 9.372 102.853 9.372C102.648 9.372 102.405 9.54 102.125 9.876C101.845 10.1933 101.565 10.6787 101.285 11.332C101.024 11.9853 100.8 12.76 100.613 13.656ZM124.379 7.048C126.749 7.048 128.467 7.43067 129.531 8.196C130.595 8.94267 131.127 9.904 131.127 11.08C131.127 11.4347 131.089 11.7613 131.015 12.06C130.735 13.292 129.951 14.1787 128.663 14.72C127.393 15.2427 125.891 15.504 124.155 15.504C123.277 15.504 122.456 15.448 121.691 15.336C121.672 16.3067 121.933 16.988 122.475 17.38C123.016 17.772 123.772 17.968 124.743 17.968C125.191 17.968 125.62 17.9213 126.031 17.828C126.441 17.716 126.964 17.5573 127.599 17.352C128.121 17.1653 128.476 17.072 128.663 17.072C128.868 17.072 128.971 17.1933 128.971 17.436C128.989 18.0893 128.747 18.78 128.243 19.508C127.739 20.2173 126.992 20.824 126.003 21.328C125.013 21.832 123.819 22.084 122.419 22.084C120.347 22.084 118.648 21.5613 117.323 20.516C115.997 19.4707 115.335 17.9493 115.335 15.952C115.335 15.392 115.409 14.7387 115.559 13.992C116.025 11.696 117.043 9.96933 118.611 8.812C120.197 7.636 122.12 7.048 124.379 7.048ZM121.887 13.656C121.961 13.6747 122.064 13.684 122.195 13.684C122.979 13.684 123.576 13.32 123.987 12.592C124.397 11.864 124.593 11.052 124.575 10.156C124.556 9.63333 124.407 9.372 124.127 9.372C123.921 9.372 123.679 9.54 123.399 9.876C123.119 10.1933 122.839 10.6787 122.559 11.332C122.297 11.9853 122.073 12.76 121.887 13.656ZM147.887 18.136C147.849 18.2107 147.831 18.3227 147.831 18.472C147.831 18.6027 147.859 18.7053 147.915 18.78C147.989 18.8547 148.083 18.892 148.195 18.892C148.419 18.892 148.605 18.7987 148.755 18.612C148.923 18.4067 149.035 18.304 149.091 18.304C149.184 18.304 149.259 18.3693 149.315 18.5C149.371 18.612 149.399 18.752 149.399 18.92C149.417 19.4613 149.24 19.9933 148.867 20.516C148.493 21.02 147.943 21.44 147.215 21.776C146.505 22.0933 145.647 22.252 144.639 22.252C143.407 22.252 142.427 21.972 141.699 21.412C140.971 20.8333 140.597 20.068 140.579 19.116C140.579 18.4253 140.747 17.6507 141.083 16.792L142.623 12.76C142.716 12.5173 142.763 12.3213 142.763 12.172C142.763 11.9293 142.679 11.7427 142.511 11.612C142.361 11.4627 142.175 11.388 141.951 11.388C141.54 11.388 141.148 11.584 140.775 11.976C140.401 12.3493 140.131 12.816 139.963 13.376L138.227 19.088C138.152 19.2933 138.115 19.4893 138.115 19.676C138.115 19.9 138.161 20.0867 138.255 20.236C138.348 20.3667 138.479 20.5067 138.647 20.656C138.777 20.768 138.871 20.8707 138.927 20.964C138.983 21.0573 138.992 21.1693 138.955 21.3C138.88 21.5427 138.703 21.72 138.423 21.832C138.143 21.944 137.704 22 137.107 22H130.723C130.237 22 129.892 21.9253 129.687 21.776C129.463 21.608 129.379 21.3933 129.435 21.132C129.509 20.908 129.705 20.712 130.023 20.544C130.303 20.3947 130.536 20.2173 130.723 20.012C130.909 19.8067 131.068 19.48 131.199 19.032L133.691 10.94C133.728 10.8467 133.747 10.716 133.747 10.548C133.747 10.3427 133.7 10.184 133.607 10.072C133.532 9.96 133.401 9.82 133.215 9.652C133.028 9.50267 132.897 9.372 132.823 9.26C132.748 9.148 132.739 8.99867 132.795 8.812C132.907 8.38267 133.495 8.00933 134.559 7.692C135.623 7.356 136.733 7.188 137.891 7.188C138.824 7.188 139.561 7.44933 140.103 7.972C140.644 8.476 140.887 9.18533 140.831 10.1C141.596 8.99867 142.408 8.24267 143.267 7.832C144.125 7.40267 145.059 7.188 146.067 7.188C147.205 7.188 148.12 7.53333 148.811 8.224C149.52 8.91467 149.875 9.81067 149.875 10.912C149.875 11.4907 149.781 12.06 149.595 12.62L147.887 18.136ZM160.762 7.048C161.9 7.048 162.899 7.216 163.758 7.552C164.616 7.86933 165.279 8.31733 165.746 8.896C166.231 9.456 166.474 10.0813 166.474 10.772C166.474 11.5187 166.212 12.1347 165.69 12.62C165.186 13.1053 164.495 13.348 163.618 13.348C162.722 13.348 162.022 13.124 161.518 12.676C161.014 12.2093 160.762 11.584 160.762 10.8C160.762 10.4267 160.818 10.0347 160.93 9.624C160.146 9.82933 159.446 10.24 158.83 10.856C158.232 11.4533 157.831 12.2467 157.626 13.236C157.514 13.796 157.458 14.3 157.458 14.748C157.458 15.756 157.738 16.5213 158.298 17.044C158.858 17.5667 159.66 17.828 160.706 17.828C161.303 17.828 161.816 17.772 162.246 17.66C162.675 17.5293 163.114 17.3613 163.562 17.156C163.935 16.9693 164.206 16.876 164.374 16.876C164.486 16.876 164.56 16.904 164.598 16.96C164.635 16.9973 164.654 17.0907 164.654 17.24C164.672 17.9307 164.383 18.6587 163.786 19.424C163.207 20.1707 162.395 20.8053 161.35 21.328C160.323 21.832 159.166 22.084 157.878 22.084C156.534 22.084 155.339 21.8413 154.294 21.356C153.267 20.852 152.464 20.1427 151.886 19.228C151.326 18.2947 151.046 17.212 151.046 15.98C151.046 15.4013 151.12 14.7573 151.27 14.048C151.774 11.7333 152.884 9.988 154.602 8.812C156.338 7.636 158.391 7.048 160.762 7.048ZM182.937 18.136C182.9 18.2107 182.881 18.3227 182.881 18.472C182.881 18.6027 182.909 18.7053 182.965 18.78C183.04 18.8547 183.133 18.892 183.245 18.892C183.469 18.892 183.656 18.7987 183.805 18.612C183.973 18.4067 184.085 18.304 184.141 18.304C184.235 18.304 184.309 18.3693 184.365 18.5C184.421 18.612 184.449 18.752 184.449 18.92C184.468 19.4613 184.291 19.9933 183.917 20.516C183.544 21.02 182.993 21.44 182.265 21.776C181.556 22.0933 180.697 22.252 179.689 22.252C178.457 22.252 177.477 21.972 176.749 21.412C176.021 20.8333 175.648 20.068 175.629 19.116C175.629 18.4253 175.797 17.6507 176.133 16.792L177.673 12.76C177.767 12.5173 177.813 12.3213 177.813 12.172C177.813 11.9293 177.729 11.7427 177.561 11.612C177.412 11.4627 177.225 11.388 177.001 11.388C176.647 11.388 176.283 11.556 175.909 11.892C175.555 12.2093 175.265 12.732 175.041 13.46V13.404L173.277 19.088C173.221 19.312 173.193 19.508 173.193 19.676C173.193 19.9187 173.24 20.1147 173.333 20.264C173.427 20.3947 173.557 20.5253 173.725 20.656C173.856 20.7867 173.949 20.8987 174.005 20.992C174.061 21.0667 174.071 21.1693 174.033 21.3C173.94 21.5427 173.753 21.72 173.473 21.832C173.193 21.944 172.764 22 172.185 22H165.801C165.316 22 164.961 21.9253 164.737 21.776C164.513 21.608 164.439 21.3933 164.513 21.132C164.588 20.908 164.784 20.712 165.101 20.544C165.381 20.3947 165.615 20.2173 165.801 20.012C165.988 19.8067 166.147 19.48 166.277 19.032L170.533 5.06C170.589 4.892 170.617 4.752 170.617 4.64C170.617 4.43467 170.561 4.26667 170.449 4.136C170.356 4.00533 170.225 3.87467 170.057 3.744C169.871 3.59467 169.731 3.464 169.637 3.352C169.563 3.24 169.553 3.09067 169.609 2.904C169.721 2.47467 170.309 2.10133 171.373 1.784C172.437 1.46667 173.548 1.308 174.705 1.308C175.788 1.308 176.581 1.51333 177.085 1.924C177.608 2.33467 177.869 2.89467 177.869 3.604C177.869 4.01467 177.804 4.416 177.673 4.808L176.161 9.736C176.889 8.784 177.655 8.12133 178.457 7.748C179.279 7.37467 180.165 7.188 181.117 7.188C182.256 7.188 183.171 7.53333 183.861 8.224C184.571 8.91467 184.925 9.81067 184.925 10.912C184.925 11.4907 184.832 12.06 184.645 12.62L182.937 18.136ZM195.648 7.188C197.795 7.188 199.512 7.58933 200.8 8.392C202.088 9.176 202.732 10.38 202.732 12.004C202.732 12.62 202.62 13.32 202.396 14.104L201.248 17.968C201.23 18.0427 201.22 18.136 201.22 18.248C201.22 18.5467 201.342 18.696 201.584 18.696C201.808 18.696 201.995 18.6027 202.144 18.416C202.312 18.2107 202.424 18.108 202.48 18.108C202.574 18.108 202.648 18.1733 202.704 18.304C202.779 18.4347 202.816 18.584 202.816 18.752C202.835 19.256 202.639 19.7693 202.228 20.292C201.836 20.8147 201.304 21.244 200.632 21.58C199.96 21.916 199.223 22.084 198.42 22.084C197.45 22.084 196.619 21.9067 195.928 21.552C195.238 21.1973 194.762 20.6747 194.5 19.984C193.94 20.656 193.278 21.1787 192.512 21.552C191.747 21.9067 190.926 22.084 190.048 22.084C189.059 22.084 188.228 21.8973 187.556 21.524C186.884 21.132 186.38 20.6373 186.044 20.04C185.727 19.424 185.568 18.78 185.568 18.108C185.568 17.8093 185.596 17.52 185.652 17.24C185.951 15.952 186.595 14.9813 187.584 14.328C188.592 13.6747 189.787 13.348 191.168 13.348C192.718 13.348 194.239 13.5907 195.732 14.076L196.432 12.228C196.675 11.444 196.796 10.8373 196.796 10.408C196.778 9.96 196.628 9.624 196.348 9.4C196.068 9.176 195.639 9.064 195.06 9.064C195.172 9.36267 195.228 9.67067 195.228 9.988C195.228 10.6787 194.967 11.276 194.444 11.78C193.922 12.284 193.175 12.536 192.204 12.536C191.29 12.536 190.571 12.34 190.048 11.948C189.544 11.5373 189.292 11.0333 189.292 10.436C189.292 9.50267 189.815 8.728 190.86 8.112C191.906 7.496 193.502 7.188 195.648 7.188ZM194.08 15.672C193.558 15.672 193.128 15.8773 192.792 16.288C192.475 16.68 192.316 17.1093 192.316 17.576C192.316 17.8747 192.382 18.1173 192.512 18.304C192.662 18.4907 192.867 18.584 193.128 18.584C193.371 18.584 193.632 18.4907 193.912 18.304C194.211 18.0987 194.426 17.8 194.556 17.408L195.144 15.756C194.827 15.7 194.472 15.672 194.08 15.672ZM221.305 18.136C221.267 18.2107 221.249 18.3227 221.249 18.472C221.249 18.6027 221.277 18.7053 221.333 18.78C221.407 18.8547 221.501 18.892 221.613 18.892C221.837 18.892 222.023 18.7987 222.173 18.612C222.341 18.4067 222.453 18.304 222.509 18.304C222.602 18.304 222.677 18.3693 222.733 18.5C222.789 18.612 222.817 18.752 222.817 18.92C222.835 19.4613 222.658 19.9933 222.285 20.516C221.911 21.02 221.361 21.44 220.633 21.776C219.923 22.0933 219.065 22.252 218.057 22.252C216.825 22.252 215.845 21.972 215.117 21.412C214.389 20.8333 214.015 20.068 213.997 19.116C213.997 18.4253 214.165 17.6507 214.501 16.792L216.041 12.76C216.134 12.5173 216.181 12.3213 216.181 12.172C216.181 11.9293 216.097 11.7427 215.929 11.612C215.779 11.4627 215.593 11.388 215.369 11.388C214.958 11.388 214.566 11.584 214.193 11.976C213.819 12.3493 213.549 12.816 213.381 13.376L211.645 19.088C211.57 19.2933 211.533 19.4893 211.533 19.676C211.533 19.9 211.579 20.0867 211.673 20.236C211.766 20.3667 211.897 20.5067 212.065 20.656C212.195 20.768 212.289 20.8707 212.345 20.964C212.401 21.0573 212.41 21.1693 212.373 21.3C212.298 21.5427 212.121 21.72 211.841 21.832C211.561 21.944 211.122 22 210.525 22H204.141C203.655 22 203.31 21.9253 203.105 21.776C202.881 21.608 202.797 21.3933 202.853 21.132C202.927 20.908 203.123 20.712 203.441 20.544C203.721 20.3947 203.954 20.2173 204.141 20.012C204.327 19.8067 204.486 19.48 204.617 19.032L207.109 10.94C207.146 10.8467 207.165 10.716 207.165 10.548C207.165 10.3427 207.118 10.184 207.025 10.072C206.95 9.96 206.819 9.82 206.633 9.652C206.446 9.50267 206.315 9.372 206.241 9.26C206.166 9.148 206.157 8.99867 206.213 8.812C206.325 8.38267 206.913 8.00933 207.977 7.692C209.041 7.356 210.151 7.188 211.309 7.188C212.242 7.188 212.979 7.44933 213.521 7.972C214.062 8.476 214.305 9.18533 214.249 10.1C215.014 8.99867 215.826 8.24267 216.685 7.832C217.543 7.40267 218.477 7.188 219.485 7.188C220.623 7.188 221.538 7.53333 222.229 8.224C222.938 8.91467 223.293 9.81067 223.293 10.912C223.293 11.4907 223.199 12.06 223.013 12.62L221.305 18.136ZM236.532 7.552C236.886 7.552 237.157 7.62667 237.344 7.776C237.549 7.92533 237.652 8.13067 237.652 8.392C237.652 8.46667 237.633 8.59733 237.596 8.784C237.353 9.60533 236.793 10.016 235.916 10.016H234.292L232.192 16.932C232.098 17.212 232.052 17.5013 232.052 17.8C232.052 18.136 232.145 18.3693 232.332 18.5C232.518 18.6307 232.78 18.696 233.116 18.696C233.414 18.696 233.788 18.6587 234.236 18.584C234.46 18.528 234.656 18.5 234.824 18.5C234.954 18.5 235.048 18.5467 235.104 18.64C235.178 18.7147 235.216 18.8173 235.216 18.948C235.234 19.3213 234.954 19.7787 234.376 20.32C233.816 20.8427 233.05 21.3 232.08 21.692C231.109 22.0653 230.036 22.252 228.86 22.252C227.59 22.252 226.573 21.9627 225.808 21.384C225.042 20.8053 224.66 20.012 224.66 19.004C224.66 18.5373 224.734 18.0893 224.884 17.66L226.676 12.116C226.769 11.7987 226.816 11.5467 226.816 11.36C226.816 10.9867 226.722 10.6693 226.536 10.408C226.368 10.1467 226.125 9.876 225.808 9.596C225.528 9.33467 225.332 9.12 225.22 8.952C225.108 8.76533 225.08 8.55067 225.136 8.308C225.21 8.06533 225.369 7.87867 225.612 7.748C225.854 7.61733 226.237 7.552 226.76 7.552H228.328L230.092 5.788C230.708 5.172 231.268 4.74267 231.772 4.5C232.294 4.25733 232.966 4.136 233.788 4.136C234.964 4.136 235.552 4.584 235.552 5.48C235.552 5.76 235.514 6.02133 235.44 6.264L235.048 7.552H236.532ZM245.539 7.048C247.91 7.048 249.627 7.43067 250.691 8.196C251.755 8.94267 252.287 9.904 252.287 11.08C252.287 11.4347 252.25 11.7613 252.175 12.06C251.895 13.292 251.111 14.1787 249.823 14.72C248.554 15.2427 247.051 15.504 245.315 15.504C244.438 15.504 243.616 15.448 242.851 15.336C242.832 16.3067 243.094 16.988 243.635 17.38C244.176 17.772 244.932 17.968 245.903 17.968C246.351 17.968 246.78 17.9213 247.191 17.828C247.602 17.716 248.124 17.5573 248.759 17.352C249.282 17.1653 249.636 17.072 249.823 17.072C250.028 17.072 250.131 17.1933 250.131 17.436C250.15 18.0893 249.907 18.78 249.403 19.508C248.899 20.2173 248.152 20.824 247.163 21.328C246.174 21.832 244.979 22.084 243.579 22.084C241.507 22.084 239.808 21.5613 238.483 20.516C237.158 19.4707 236.495 17.9493 236.495 15.952C236.495 15.392 236.57 14.7387 236.719 13.992C237.186 11.696 238.203 9.96933 239.771 8.812C241.358 7.636 243.28 7.048 245.539 7.048ZM243.047 13.656C243.122 13.6747 243.224 13.684 243.355 13.684C244.139 13.684 244.736 13.32 245.147 12.592C245.558 11.864 245.754 11.052 245.735 10.156C245.716 9.63333 245.567 9.372 245.287 9.372C245.082 9.372 244.839 9.54 244.559 9.876C244.279 10.1933 243.999 10.6787 243.719 11.332C243.458 11.9853 243.234 12.76 243.047 13.656ZM247.415 2.932C247.863 2.148 248.32 1.57867 248.787 1.224C249.272 0.869332 249.851 0.691999 250.523 0.691999C251.102 0.691999 251.559 0.850666 251.895 1.168C252.231 1.46667 252.399 1.87733 252.399 2.4C252.399 2.96 252.212 3.44533 251.839 3.856C251.466 4.26667 250.859 4.67733 250.019 5.088L247.583 6.264C247.228 6.41333 246.93 6.488 246.687 6.488C246.463 6.488 246.276 6.432 246.127 6.32C245.996 6.208 245.931 6.04 245.931 5.816C245.931 5.57333 246.024 5.29333 246.211 4.976L247.415 2.932ZM261.207 7.048C263.578 7.048 265.295 7.43067 266.359 8.196C267.423 8.94267 267.955 9.904 267.955 11.08C267.955 11.4347 267.918 11.7613 267.843 12.06C267.563 13.292 266.779 14.1787 265.491 14.72C264.222 15.2427 262.719 15.504 260.983 15.504C260.106 15.504 259.284 15.448 258.519 15.336C258.5 16.3067 258.762 16.988 259.303 17.38C259.844 17.772 260.6 17.968 261.571 17.968C262.019 17.968 262.448 17.9213 262.859 17.828C263.27 17.716 263.792 17.5573 264.427 17.352C264.95 17.1653 265.304 17.072 265.491 17.072C265.696 17.072 265.799 17.1933 265.799 17.436C265.818 18.0893 265.575 18.78 265.071 19.508C264.567 20.2173 263.82 20.824 262.831 21.328C261.842 21.832 260.647 22.084 259.247 22.084C257.175 22.084 255.476 21.5613 254.151 20.516C252.826 19.4707 252.163 17.9493 252.163 15.952C252.163 15.392 252.238 14.7387 252.387 13.992C252.854 11.696 253.871 9.96933 255.439 8.812C257.026 7.636 258.948 7.048 261.207 7.048ZM258.715 13.656C258.79 13.6747 258.892 13.684 259.023 13.684C259.807 13.684 260.404 13.32 260.815 12.592C261.226 11.864 261.422 11.052 261.403 10.156C261.384 9.63333 261.235 9.372 260.955 9.372C260.75 9.372 260.507 9.54 260.227 9.876C259.947 10.1933 259.667 10.6787 259.387 11.332C259.126 11.9853 258.902 12.76 258.715 13.656Z" fill="#101010"/>
</svg>
