<svg width="204" height="33" viewBox="0 0 204 33" fill="none" xmlns="http://www.w3.org/2000/svg">
<path d="M19.108 22.696C19.0333 22.9387 18.996 23.1813 18.996 23.424C18.996 23.6293 19.024 23.8067 19.08 23.956C19.136 24.0867 19.192 24.1987 19.248 24.292C19.3227 24.3667 19.3693 24.4227 19.388 24.46C19.5747 24.6467 19.668 24.8333 19.668 25.02C19.668 25.0573 19.6493 25.1507 19.612 25.3C19.5373 25.5613 19.3693 25.748 19.108 25.86C18.8653 25.9533 18.4827 26 17.96 26H11.324C10.932 26 10.624 25.9347 10.4 25.804C10.1947 25.6733 10.092 25.496 10.092 25.272C10.092 25.16 10.12 25.0387 10.176 24.908C10.232 24.7587 10.3067 24.6467 10.4 24.572C10.512 24.4787 10.6613 24.376 10.848 24.264C11.1467 24.096 11.3893 23.9093 11.576 23.704C11.7627 23.4987 11.9213 23.1627 12.052 22.696L12.78 20.288H8.412L7.656 21.884C7.33867 22.5747 7.18 23.116 7.18 23.508C7.18 23.732 7.21733 23.9187 7.292 24.068C7.36667 24.1987 7.47867 24.3387 7.628 24.488C7.75867 24.6373 7.84267 24.768 7.88 24.88C7.936 24.9733 7.94533 25.104 7.908 25.272C7.83333 25.552 7.67467 25.748 7.432 25.86C7.208 25.9533 6.844 26 6.34 26H2.168C1.73867 26 1.412 25.9253 1.188 25.776C0.964 25.608 0.852 25.3933 0.852 25.132C0.852 24.8333 0.964 24.6 1.188 24.432C1.39333 24.2453 1.71067 24.0493 2.14 23.844C2.7 23.564 3.148 23.2933 3.484 23.032C3.82 22.752 4.10933 22.3693 4.352 21.884L9.336 11.552C10.1013 9.94667 10.9973 8.78933 12.024 8.08C13.0693 7.352 14.4413 6.988 16.14 6.988C18.044 6.988 19.5187 7.38 20.564 8.164C21.6093 8.92933 22.132 10.0027 22.132 11.384C22.132 11.9627 22.0387 12.56 21.852 13.176L19.108 22.696ZM13.62 17.488L15.104 12.56C15.1787 12.336 15.216 12.1027 15.216 11.86C15.216 11.5053 15.1133 11.244 14.908 11.076C14.7213 10.8893 14.4507 10.796 14.096 10.796C13.648 10.796 13.2653 10.9267 12.948 11.188C12.6307 11.4493 12.3133 11.916 11.996 12.588L9.7 17.488H13.62ZM18.24 4.916C18.3147 5.12133 18.352 5.31733 18.352 5.504C18.352 5.728 18.2867 5.91467 18.156 6.064C18.0253 6.21333 17.8573 6.288 17.652 6.288C17.428 6.288 17.2133 6.25067 17.008 6.176C16.8027 6.08267 16.5693 5.93333 16.308 5.728L14.684 4.468C14.1613 4.03867 13.7787 3.656 13.536 3.32C13.312 2.984 13.2 2.60133 13.2 2.172C13.2 1.668 13.3587 1.25733 13.676 0.939999C14.012 0.622665 14.4693 0.463998 15.048 0.463998C15.6453 0.463998 16.14 0.641332 16.532 0.995998C16.9427 1.35067 17.2787 1.92 17.54 2.704L18.24 4.916ZM36.0883 5.308C37.1709 5.308 37.9643 5.51333 38.4683 5.924C38.9909 6.33467 39.2523 6.89467 39.2523 7.604C39.2523 8.01467 39.1869 8.416 39.0563 8.808L34.6603 23.088C34.6043 23.312 34.5763 23.508 34.5763 23.676C34.5763 23.9187 34.6229 24.1147 34.7163 24.264C34.8096 24.3947 34.9403 24.5253 35.1083 24.656C35.2389 24.7867 35.3323 24.8987 35.3882 24.992C35.4443 25.0667 35.4536 25.1693 35.4163 25.3C35.3229 25.5427 35.1363 25.72 34.8563 25.832C34.5763 25.944 34.1469 26 33.5683 26H27.1843C26.6989 26 26.3442 25.9253 26.1202 25.776C25.8962 25.608 25.8216 25.3933 25.8962 25.132C25.9709 24.908 26.1669 24.712 26.4842 24.544C26.7642 24.3947 26.9976 24.2173 27.1843 24.012C27.3709 23.8067 27.5296 23.48 27.6603 23.032L31.9163 9.06C31.9723 8.892 32.0003 8.752 32.0003 8.64C32.0003 8.43467 31.9443 8.26667 31.8323 8.136C31.7389 8.00533 31.6083 7.87467 31.4403 7.744C31.2536 7.59467 31.1136 7.464 31.0203 7.352C30.9456 7.24 30.9363 7.09067 30.9923 6.904C31.1043 6.47467 31.6923 6.10133 32.7563 5.784C33.8203 5.46667 34.9309 5.308 36.0883 5.308ZM47.4062 11.188C49.5528 11.188 51.2702 11.5893 52.5582 12.392C53.8462 13.176 54.4902 14.38 54.4902 16.004C54.4902 16.62 54.3782 17.32 54.1542 18.104L53.0062 21.968C52.9875 22.0427 52.9782 22.136 52.9782 22.248C52.9782 22.5467 53.0995 22.696 53.3422 22.696C53.5662 22.696 53.7528 22.6027 53.9022 22.416C54.0702 22.2107 54.1822 22.108 54.2382 22.108C54.3315 22.108 54.4062 22.1733 54.4622 22.304C54.5368 22.4347 54.5742 22.584 54.5742 22.752C54.5928 23.256 54.3968 23.7693 53.9862 24.292C53.5942 24.8147 53.0622 25.244 52.3902 25.58C51.7182 25.916 50.9808 26.084 50.1782 26.084C49.2075 26.084 48.3768 25.9067 47.6862 25.552C46.9955 25.1973 46.5195 24.6747 46.2582 23.984C45.6982 24.656 45.0355 25.1787 44.2702 25.552C43.5048 25.9067 42.6835 26.084 41.8062 26.084C40.8168 26.084 39.9862 25.8973 39.3142 25.524C38.6422 25.132 38.1382 24.6373 37.8022 24.04C37.4848 23.424 37.3262 22.78 37.3262 22.108C37.3262 21.8093 37.3542 21.52 37.4102 21.24C37.7088 19.952 38.3528 18.9813 39.3422 18.328C40.3502 17.6747 41.5448 17.348 42.9262 17.348C44.4755 17.348 45.9968 17.5907 47.4902 18.076L48.1902 16.228C48.4328 15.444 48.5542 14.8373 48.5542 14.408C48.5355 13.96 48.3862 13.624 48.1062 13.4C47.8262 13.176 47.3968 13.064 46.8182 13.064C46.9302 13.3627 46.9862 13.6707 46.9862 13.988C46.9862 14.6787 46.7248 15.276 46.2022 15.78C45.6795 16.284 44.9328 16.536 43.9622 16.536C43.0475 16.536 42.3288 16.34 41.8062 15.948C41.3022 15.5373 41.0502 15.0333 41.0502 14.436C41.0502 13.5027 41.5728 12.728 42.6182 12.112C43.6635 11.496 45.2595 11.188 47.4062 11.188ZM45.8382 19.672C45.3155 19.672 44.8862 19.8773 44.5502 20.288C44.2328 20.68 44.0742 21.1093 44.0742 21.576C44.0742 21.8747 44.1395 22.1173 44.2702 22.304C44.4195 22.4907 44.6248 22.584 44.8862 22.584C45.1288 22.584 45.3902 22.4907 45.6702 22.304C45.9688 22.0987 46.1835 21.8 46.3142 21.408L46.9022 19.756C46.5848 19.7 46.2302 19.672 45.8382 19.672ZM72.7599 5.308C74.7573 5.308 76.2506 5.616 77.2399 6.232C78.2479 6.82933 78.7519 7.56667 78.7519 8.444C78.7519 9.15333 78.4533 9.704 77.8559 10.096C77.2773 10.4693 76.5119 10.656 75.5599 10.656C74.6826 10.656 74.0013 10.4413 73.5159 10.012C73.0306 9.58267 72.7879 9.05067 72.7879 8.416C72.7879 8.024 72.9093 7.61333 73.1519 7.184C72.5919 7.184 72.1253 7.324 71.7519 7.604C71.3786 7.86533 71.0893 8.32267 70.8839 8.976C70.7719 9.38667 70.7159 9.76933 70.7159 10.124C70.7159 10.572 70.7906 10.9267 70.9399 11.188C71.1079 11.4307 71.3413 11.552 71.6399 11.552H73.2919C74.2626 11.552 74.7479 11.8507 74.7479 12.448C74.7479 12.5227 74.7293 12.6347 74.6919 12.784C74.5799 13.1947 74.3466 13.5027 73.9919 13.708C73.6559 13.9133 73.1426 14.016 72.4519 14.016H71.6119L68.8399 23.088C68.7839 23.312 68.7559 23.508 68.7559 23.676C68.7559 23.9187 68.8026 24.1147 68.8959 24.264C68.9893 24.3947 69.1199 24.5253 69.2879 24.656C69.4186 24.7867 69.5119 24.8987 69.5679 24.992C69.6239 25.0667 69.6333 25.1693 69.5959 25.3C69.5026 25.5427 69.3159 25.72 69.0359 25.832C68.7559 25.944 68.3266 26 67.7479 26H61.3639C60.8786 26 60.5239 25.9253 60.2999 25.776C60.0759 25.608 60.0013 25.3933 60.0759 25.132C60.1506 24.908 60.3466 24.712 60.6639 24.544C60.9439 24.3947 61.1773 24.2173 61.3639 24.012C61.5506 23.8067 61.7093 23.48 61.8399 23.032L64.0239 15.864C64.1173 15.584 64.1639 15.2947 64.1639 14.996C64.1639 14.6227 64.0799 14.3333 63.9119 14.128C63.7626 13.904 63.5293 13.6613 63.2119 13.4C63.0066 13.232 62.8479 13.092 62.7359 12.98C62.6426 12.8493 62.5959 12.7 62.5959 12.532C62.5773 12.1773 62.6986 11.9253 62.9599 11.776C63.2399 11.6267 63.7626 11.552 64.5279 11.552H65.2279C65.0973 11.0853 65.0319 10.6187 65.0319 10.152C65.0319 9.68533 65.1159 9.2 65.2839 8.696C65.6386 7.744 66.3946 6.94133 67.5519 6.288C68.7279 5.63467 70.4639 5.308 72.7599 5.308ZM86.7324 11.188C87.7777 11.188 88.6084 11.5053 89.2244 12.14C89.859 12.7747 90.1764 13.5587 90.1764 14.492C90.1764 14.8467 90.139 15.1733 90.0644 15.472C89.8777 16.2373 89.523 16.8253 89.0004 17.236C88.4777 17.6467 87.8524 17.852 87.1244 17.852C86.415 17.852 85.8737 17.684 85.5004 17.348C85.1457 17.012 84.8284 16.564 84.5484 16.004C84.399 15.6867 84.259 15.4533 84.1284 15.304C83.9977 15.1547 83.8484 15.08 83.6804 15.08C83.4937 15.08 83.3257 15.1547 83.1764 15.304C83.0457 15.4533 82.9244 15.7147 82.8124 16.088L80.6564 23.088C80.619 23.1813 80.6004 23.3213 80.6004 23.508C80.6004 23.7507 80.6657 23.956 80.7964 24.124C80.9457 24.2733 81.1417 24.4227 81.3844 24.572C81.6084 24.7213 81.7577 24.8427 81.8324 24.936C81.907 25.0293 81.935 25.1507 81.9164 25.3C81.879 25.5427 81.739 25.72 81.4964 25.832C81.2724 25.944 80.8804 26 80.3204 26H73.1524C72.667 26 72.3217 25.9253 72.1164 25.776C71.8924 25.608 71.8084 25.3933 71.8644 25.132C71.939 24.908 72.135 24.712 72.4524 24.544C72.7324 24.3947 72.9657 24.2173 73.1524 24.012C73.339 23.8067 73.4977 23.48 73.6284 23.032L76.1204 14.94C76.1577 14.8467 76.1764 14.716 76.1764 14.548C76.1764 14.3427 76.1297 14.184 76.0364 14.072C75.9617 13.96 75.831 13.82 75.6444 13.652C75.4577 13.5027 75.327 13.372 75.2524 13.26C75.1777 13.148 75.1684 12.9987 75.2244 12.812C75.3364 12.3827 75.9244 12.0093 76.9884 11.692C78.0524 11.356 79.163 11.188 80.3204 11.188C81.0857 11.188 81.7204 11.3653 82.2244 11.72C82.7284 12.056 83.055 12.5413 83.2044 13.176C84.1004 11.8507 85.2764 11.188 86.7324 11.188ZM98.6483 11.188C100.795 11.188 102.512 11.5893 103.8 12.392C105.088 13.176 105.732 14.38 105.732 16.004C105.732 16.62 105.62 17.32 105.396 18.104L104.248 21.968C104.23 22.0427 104.22 22.136 104.22 22.248C104.22 22.5467 104.342 22.696 104.584 22.696C104.808 22.696 104.995 22.6027 105.144 22.416C105.312 22.2107 105.424 22.108 105.48 22.108C105.574 22.108 105.648 22.1733 105.704 22.304C105.779 22.4347 105.816 22.584 105.816 22.752C105.835 23.256 105.639 23.7693 105.228 24.292C104.836 24.8147 104.304 25.244 103.632 25.58C102.96 25.916 102.223 26.084 101.42 26.084C100.45 26.084 99.619 25.9067 98.9283 25.552C98.2377 25.1973 97.7617 24.6747 97.5003 23.984C96.9403 24.656 96.2777 25.1787 95.5123 25.552C94.747 25.9067 93.9257 26.084 93.0483 26.084C92.059 26.084 91.2283 25.8973 90.5563 25.524C89.8843 25.132 89.3803 24.6373 89.0443 24.04C88.727 23.424 88.5683 22.78 88.5683 22.108C88.5683 21.8093 88.5963 21.52 88.6523 21.24C88.951 19.952 89.595 18.9813 90.5843 18.328C91.5923 17.6747 92.787 17.348 94.1683 17.348C95.7177 17.348 97.239 17.5907 98.7323 18.076L99.4323 16.228C99.675 15.444 99.7963 14.8373 99.7963 14.408C99.7777 13.96 99.6283 13.624 99.3483 13.4C99.0683 13.176 98.639 13.064 98.0603 13.064C98.1723 13.3627 98.2283 13.6707 98.2283 13.988C98.2283 14.6787 97.967 15.276 97.4443 15.78C96.9217 16.284 96.175 16.536 95.2043 16.536C94.2897 16.536 93.571 16.34 93.0483 15.948C92.5443 15.5373 92.2923 15.0333 92.2923 14.436C92.2923 13.5027 92.815 12.728 93.8603 12.112C94.9057 11.496 96.5017 11.188 98.6483 11.188ZM97.0803 19.672C96.5577 19.672 96.1283 19.8773 95.7923 20.288C95.475 20.68 95.3163 21.1093 95.3163 21.576C95.3163 21.8747 95.3817 22.1173 95.5123 22.304C95.6617 22.4907 95.867 22.584 96.1283 22.584C96.371 22.584 96.6323 22.4907 96.9123 22.304C97.211 22.0987 97.4257 21.8 97.5563 21.408L98.1443 19.756C97.827 19.7 97.4723 19.672 97.0803 19.672ZM124.305 22.136C124.267 22.2107 124.249 22.3227 124.249 22.472C124.249 22.6027 124.277 22.7053 124.333 22.78C124.407 22.8547 124.501 22.892 124.613 22.892C124.837 22.892 125.023 22.7987 125.173 22.612C125.341 22.4067 125.453 22.304 125.509 22.304C125.602 22.304 125.677 22.3693 125.733 22.5C125.789 22.612 125.817 22.752 125.817 22.92C125.835 23.4613 125.658 23.9933 125.285 24.516C124.911 25.02 124.361 25.44 123.633 25.776C122.923 26.0933 122.065 26.252 121.057 26.252C119.825 26.252 118.845 25.972 118.117 25.412C117.389 24.8333 117.015 24.068 116.997 23.116C116.997 22.4253 117.165 21.6507 117.501 20.792L119.041 16.76C119.134 16.5173 119.181 16.3213 119.181 16.172C119.181 15.9293 119.097 15.7427 118.929 15.612C118.779 15.4627 118.593 15.388 118.369 15.388C117.958 15.388 117.566 15.584 117.193 15.976C116.819 16.3493 116.549 16.816 116.381 17.376L114.645 23.088C114.57 23.2933 114.533 23.4893 114.533 23.676C114.533 23.9 114.579 24.0867 114.673 24.236C114.766 24.3667 114.897 24.5067 115.065 24.656C115.195 24.768 115.289 24.8707 115.345 24.964C115.401 25.0573 115.41 25.1693 115.373 25.3C115.298 25.5427 115.121 25.72 114.841 25.832C114.561 25.944 114.122 26 113.525 26H107.141C106.655 26 106.31 25.9253 106.105 25.776C105.881 25.608 105.797 25.3933 105.853 25.132C105.927 24.908 106.123 24.712 106.441 24.544C106.721 24.3947 106.954 24.2173 107.141 24.012C107.327 23.8067 107.486 23.48 107.617 23.032L110.109 14.94C110.146 14.8467 110.165 14.716 110.165 14.548C110.165 14.3427 110.118 14.184 110.025 14.072C109.95 13.96 109.819 13.82 109.633 13.652C109.446 13.5027 109.315 13.372 109.241 13.26C109.166 13.148 109.157 12.9987 109.213 12.812C109.325 12.3827 109.913 12.0093 110.977 11.692C112.041 11.356 113.151 11.188 114.309 11.188C115.242 11.188 115.979 11.4493 116.521 11.972C117.062 12.476 117.305 13.1853 117.249 14.1C118.014 12.9987 118.826 12.2427 119.685 11.832C120.543 11.4027 121.477 11.188 122.485 11.188C123.623 11.188 124.538 11.5333 125.229 12.224C125.938 12.9147 126.293 13.8107 126.293 14.912C126.293 15.4907 126.199 16.06 126.013 16.62L124.305 22.136ZM140.036 17.348C139.14 17.348 138.44 17.124 137.936 16.676C137.432 16.2093 137.18 15.584 137.18 14.8C137.18 14.4267 137.236 14.0347 137.348 13.624C136.564 13.8293 135.864 14.24 135.248 14.856C134.65 15.4533 134.249 16.2467 134.044 17.236C133.932 17.796 133.876 18.3 133.876 18.748C133.876 19.756 134.156 20.5213 134.716 21.044C135.276 21.5667 136.078 21.828 137.124 21.828C137.721 21.828 138.234 21.772 138.664 21.66C139.093 21.5293 139.532 21.3613 139.98 21.156C140.353 20.9693 140.624 20.876 140.792 20.876C140.904 20.876 140.978 20.904 141.016 20.96C141.053 20.9973 141.072 21.0907 141.072 21.24C141.09 21.856 140.866 22.5093 140.4 23.2C139.933 23.872 139.27 24.4693 138.412 24.992C137.572 25.496 136.61 25.832 135.528 26L135.108 27.204C135.854 27.204 136.498 27.4373 137.04 27.904C137.581 28.3893 137.852 28.9867 137.852 29.696C137.852 30.0133 137.796 30.3213 137.684 30.62C137.422 31.3667 136.89 31.9453 136.088 32.356C135.304 32.7853 134.314 33 133.12 33C132.186 33 131.309 32.8507 130.488 32.552C129.666 32.2533 129.013 31.8707 128.528 31.404C128.042 30.956 127.8 30.508 127.8 30.06C127.8 29.9853 127.818 29.8733 127.856 29.724C127.93 29.5373 128.061 29.444 128.248 29.444C128.378 29.444 128.612 29.5373 128.948 29.724C129.9 30.2653 130.824 30.536 131.72 30.536C132.653 30.536 133.204 30.2747 133.372 29.752C133.39 29.696 133.4 29.612 133.4 29.5C133.4 29.2573 133.306 29.0707 133.12 28.94C132.952 28.828 132.746 28.772 132.504 28.772C132.336 28.772 132.084 28.7907 131.748 28.828C131.412 28.8653 131.178 28.884 131.048 28.884C130.674 28.884 130.488 28.716 130.488 28.38C130.488 28.324 130.506 28.24 130.544 28.128L131.44 25.636C130.208 25.2067 129.237 24.5067 128.528 23.536C127.818 22.5467 127.464 21.3613 127.464 19.98C127.464 19.4013 127.538 18.7573 127.688 18.048C128.192 15.7333 129.302 13.988 131.02 12.812C132.756 11.636 134.809 11.048 137.18 11.048C138.318 11.048 139.317 11.216 140.176 11.552C141.034 11.8693 141.697 12.3173 142.164 12.896C142.649 13.456 142.892 14.0813 142.892 14.772C142.892 15.5187 142.63 16.1347 142.108 16.62C141.604 17.1053 140.913 17.348 140.036 17.348ZM152.187 11.188C154.334 11.188 156.051 11.5893 157.339 12.392C158.627 13.176 159.271 14.38 159.271 16.004C159.271 16.62 159.159 17.32 158.935 18.104L157.787 21.968C157.769 22.0427 157.759 22.136 157.759 22.248C157.759 22.5467 157.881 22.696 158.123 22.696C158.347 22.696 158.534 22.6027 158.683 22.416C158.851 22.2107 158.963 22.108 159.019 22.108C159.113 22.108 159.187 22.1733 159.243 22.304C159.318 22.4347 159.355 22.584 159.355 22.752C159.374 23.256 159.178 23.7693 158.767 24.292C158.375 24.8147 157.843 25.244 157.171 25.58C156.499 25.916 155.762 26.084 154.959 26.084C153.989 26.084 153.158 25.9067 152.467 25.552C151.777 25.1973 151.301 24.6747 151.039 23.984C150.479 24.656 149.817 25.1787 149.051 25.552C148.286 25.9067 147.465 26.084 146.587 26.084C145.598 26.084 144.767 25.8973 144.095 25.524C143.423 25.132 142.919 24.6373 142.583 24.04C142.266 23.424 142.107 22.78 142.107 22.108C142.107 21.8093 142.135 21.52 142.191 21.24C142.49 19.952 143.134 18.9813 144.123 18.328C145.131 17.6747 146.326 17.348 147.707 17.348C149.257 17.348 150.778 17.5907 152.271 18.076L152.971 16.228C153.214 15.444 153.335 14.8373 153.335 14.408C153.317 13.96 153.167 13.624 152.887 13.4C152.607 13.176 152.178 13.064 151.599 13.064C151.711 13.3627 151.767 13.6707 151.767 13.988C151.767 14.6787 151.506 15.276 150.983 15.78C150.461 16.284 149.714 16.536 148.743 16.536C147.829 16.536 147.11 16.34 146.587 15.948C146.083 15.5373 145.831 15.0333 145.831 14.436C145.831 13.5027 146.354 12.728 147.399 12.112C148.445 11.496 150.041 11.188 152.187 11.188ZM150.619 19.672C150.097 19.672 149.667 19.8773 149.331 20.288C149.014 20.68 148.855 21.1093 148.855 21.576C148.855 21.8747 148.921 22.1173 149.051 22.304C149.201 22.4907 149.406 22.584 149.667 22.584C149.91 22.584 150.171 22.4907 150.451 22.304C150.75 22.0987 150.965 21.8 151.095 21.408L151.683 19.756C151.366 19.7 151.011 19.672 150.619 19.672ZM167.876 11.188C168.958 11.188 169.752 11.3933 170.256 11.804C170.76 12.2147 171.012 12.7747 171.012 13.484C171.012 13.9133 170.946 14.324 170.816 14.716L168.24 23.088C168.184 23.312 168.156 23.508 168.156 23.676C168.156 23.9187 168.202 24.1147 168.296 24.264C168.389 24.3947 168.52 24.5253 168.688 24.656C168.818 24.7867 168.912 24.8987 168.968 24.992C169.024 25.0667 169.033 25.1693 168.996 25.3C168.902 25.5427 168.716 25.72 168.436 25.832C168.156 25.944 167.726 26 167.148 26H160.764C160.278 26 159.924 25.9253 159.7 25.776C159.476 25.608 159.401 25.3933 159.476 25.132C159.55 24.908 159.746 24.712 160.064 24.544C160.344 24.3947 160.577 24.2173 160.764 24.012C160.95 23.8067 161.109 23.48 161.24 23.032L163.676 14.94C163.732 14.772 163.76 14.632 163.76 14.52C163.76 14.3147 163.713 14.156 163.62 14.044C163.526 13.9133 163.386 13.7827 163.2 13.652C163.013 13.5027 162.882 13.372 162.808 13.26C162.733 13.148 162.724 12.9987 162.78 12.812C162.892 12.3827 163.48 12.0093 164.544 11.692C165.608 11.356 166.718 11.188 167.876 11.188ZM169.752 5C170.48 5 171.086 5.24267 171.572 5.728C172.057 6.19467 172.3 6.77333 172.3 7.464C172.3 7.94933 172.169 8.42533 171.908 8.892C171.665 9.35867 171.31 9.74133 170.844 10.04C170.396 10.32 169.892 10.46 169.332 10.46C168.622 10.46 168.025 10.2267 167.54 9.76C167.073 9.27467 166.83 8.67733 166.812 7.968C166.812 7.50133 166.933 7.044 167.176 6.596C167.418 6.12933 167.764 5.74667 168.212 5.448C168.66 5.14933 169.173 5 169.752 5ZM179.978 10.936C181.527 10.936 182.862 11.076 183.982 11.356C185.12 11.636 185.988 12.028 186.586 12.532C187.202 13.036 187.51 13.6053 187.51 14.24C187.51 14.8933 187.248 15.4253 186.726 15.836C186.222 16.2467 185.512 16.452 184.598 16.452C183.664 16.452 182.871 16.2187 182.218 15.752C181.583 15.2853 181.266 14.6973 181.266 13.988C181.266 13.7453 181.303 13.512 181.378 13.288C181.042 13.1947 180.743 13.148 180.482 13.148C180.015 13.148 179.623 13.26 179.306 13.484C179.007 13.708 178.867 14.0253 178.886 14.436C178.886 14.9213 179.128 15.332 179.614 15.668C180.099 16.004 180.883 16.424 181.966 16.928C182.899 17.3387 183.664 17.7213 184.262 18.076C184.878 18.412 185.391 18.8413 185.802 19.364C186.231 19.8867 186.446 20.5027 186.446 21.212C186.446 21.3613 186.408 21.6413 186.334 22.052C186.035 23.3027 185.204 24.292 183.842 25.02C182.479 25.748 180.687 26.112 178.466 26.112C175.964 26.112 173.976 25.776 172.502 25.104C171.046 24.432 170.318 23.508 170.318 22.332C170.318 21.5293 170.56 20.9227 171.046 20.512C171.531 20.1013 172.175 19.896 172.978 19.896C173.911 19.896 174.704 20.1853 175.358 20.764C176.03 21.3427 176.366 22.08 176.366 22.976C176.366 23.2187 176.338 23.4707 176.282 23.732C176.73 23.844 177.159 23.9 177.57 23.9C178.055 23.9 178.456 23.7693 178.774 23.508C179.091 23.2467 179.25 22.8827 179.25 22.416C179.231 21.9867 179.016 21.6227 178.606 21.324C178.195 21.0067 177.542 20.6333 176.646 20.204C175.806 19.812 175.115 19.448 174.574 19.112C174.032 18.7573 173.566 18.3187 173.174 17.796C172.8 17.2733 172.614 16.6573 172.614 15.948C172.614 14.4173 173.248 13.204 174.518 12.308C175.806 11.3933 177.626 10.936 179.978 10.936ZM196.855 11.048C199.226 11.048 200.943 11.4307 202.007 12.196C203.071 12.9427 203.603 13.904 203.603 15.08C203.603 15.4347 203.566 15.7613 203.491 16.06C203.211 17.292 202.427 18.1787 201.139 18.72C199.87 19.2427 198.367 19.504 196.631 19.504C195.754 19.504 194.933 19.448 194.167 19.336C194.149 20.3067 194.41 20.988 194.951 21.38C195.493 21.772 196.249 21.968 197.219 21.968C197.667 21.968 198.097 21.9213 198.507 21.828C198.918 21.716 199.441 21.5573 200.075 21.352C200.598 21.1653 200.953 21.072 201.139 21.072C201.345 21.072 201.447 21.1933 201.447 21.436C201.466 22.0893 201.223 22.78 200.719 23.508C200.215 24.2173 199.469 24.824 198.479 25.328C197.49 25.832 196.295 26.084 194.895 26.084C192.823 26.084 191.125 25.5613 189.799 24.516C188.474 23.4707 187.811 21.9493 187.811 19.952C187.811 19.392 187.886 18.7387 188.035 17.992C188.502 15.696 189.519 13.9693 191.087 12.812C192.674 11.636 194.597 11.048 196.855 11.048ZM194.363 17.656C194.438 17.6747 194.541 17.684 194.671 17.684C195.455 17.684 196.053 17.32 196.463 16.592C196.874 15.864 197.07 15.052 197.051 14.156C197.033 13.6333 196.883 13.372 196.603 13.372C196.398 13.372 196.155 13.54 195.875 13.876C195.595 14.1933 195.315 14.6787 195.035 15.332C194.774 15.9853 194.55 16.76 194.363 17.656Z" fill="#101010"/>
</svg>
